:version 1.10
:name ASF
:units
  mass 1
  length 1
  angle deg
:documentation
  ASF file generated by Kaydara
:root
  axis xyz
  order  tx ty tz rx ry rz
  position 0 0 0
  orientation 0 0 0
:bonedata
  begin
    id 1
    name RightUpLegDummy
    direction -0.718183 -0.695806 0.00816078
    length 4.904
    axis 0 0 0 xyz
  end
  begin
    id 2
    name RightUpLeg
    direction 3.53989e-006 -0.995788 0.0916897
    length 17.4976
    axis -3.49089 -0.000906621 0.000287158 xyz
    dof rx ry rz
  end
  begin
    id 3
    name RightLeg
    direction 0.00371093 -0.995096 -0.0988418
    length 16.5821
    axis 3.68512 0.0193738 -0.131023 xyz
    dof rx ry rz
  end
  begin
    id 4
    name RightFoot
    direction 0.000791514 -0.46099 0.887405
    length 3.77069
    axis 4.84075e-005 -0.120479 -0.188788 xyz
    dof rx ry rz
  end
  begin
    id 5
    name RightToes
    direction 0.00124746 -0.014064 0.9999
    length 3.85082
    axis 0.00048216 0.542163 -0.142577 xyz
    dof rx ry rz
  end
  begin
    id 6
    name SpineDummy
    direction 8.3039e-015 1 4.57515e-016
    length 4.6813
    axis 0 0 0 xyz
  end
  begin
    id 7
    name Spine
    direction -4.63632e-008 0.999988 0.00495137
    length 10.1015
    axis -0.00138897 0.000121419 3.25764e-006 xyz
    dof rx ry rz
  end
  begin
    id 8
    name Spine1
    direction 0 0 0
    length 0
    axis -0.00138896 0.000121452 2.39764e-006 xyz
    dof rx ry rz
  end
  begin
    id 9
    name HEadDummy
    direction -3.91456e-008 0.999999 0.00127422
    length 3.43865
    axis -0.00138896 0.000121452 2.39764e-006 xyz
  end
  begin
    id 10
    name HEad
    direction -0.0222688 0.980941 0.193023
    length 5.12695
    axis -0.00138895 0.000121452 2.39764e-006 xyz
    dof rx ry rz
  end
  begin
    id 11
    name LeftShoulder1Dummy
    direction 0.998891 -0.0402508 -0.0244456
    length 3.5433
    axis -0.00138896 0.000121452 2.39764e-006 xyz
  end
  begin
    id 12
    name LeftShoulder1
    direction 0.99951 -0.000327743 0.0313091
    length 4.05031
    axis -0.00138896 0.000121452 2.39764e-006 xyz
    dof rx ry rz
  end
  begin
    id 13
    name LeftArm
    direction 0.998561 -0.00100054 -0.0536182
    length 10.3537
    axis -23.1894 0.134784 0.96751 xyz
    dof rx ry rz
  end
  begin
    id 14
    name LeftForeArm
    direction 0.998903 0.00866434 0.046012
    length 8.70632
    axis -9.91835 -0.06569 -0.177792 xyz
    dof rx ry rz
  end
  begin
    id 15
    name LeftHand
    direction 0.992938 -0.0411636 0.11126
    length 5.32135
    axis -0.00960227 -0.00340091 0.185174 xyz
    dof rx ry rz
  end
  begin
    id 16
    name RightShoulderDummy
    direction -0.998891 -0.0402509 -0.0244414
    length 3.5433
    axis -0.00138896 0.000121452 2.39764e-006 xyz
  end
  begin
    id 17
    name RightShoulder
    direction -0.99951 -0.000327827 0.0313133
    length 4.05031
    axis 0.215806 0.000203644 -0.00680151 xyz
    dof rx ry rz
  end
  begin
    id 18
    name RightArm
    direction -0.998573 -0.000999583 -0.053403
    length 10.3947
    axis -23.2009 -0.134239 -0.9641 xyz
    dof rx ry rz
  end
  begin
    id 19
    name RightForeArm
    direction -0.998898 0.00868026 0.0461306
    length 8.68355
    axis -9.92322 0.0658061 0.178869 xyz
    dof rx ry rz
  end
  begin
    id 20
    name RightHand
    direction -0.992843 -0.0414603 0.112003
    length 5.28593
    axis -0.00960634 0.00330671 -0.185226 xyz
    dof rx ry rz
  end
  begin
    id 21
    name LeftUpLegDummy
    direction 0.718183 -0.695806 0.00816078
    length 4.904
    axis 0 0 0 xyz
  end
  begin
    id 22
    name LeftUpLeg
    direction -6.8115e-006 -0.995793 0.0916336
    length 17.4976
    axis -3.48766 0.00143441 -0.000523914 xyz
    dof rx ry rz
  end
  begin
    id 23
    name LeftLeg
    direction -0.00601357 -0.995091 -0.0987824
    length 16.5821
    axis 3.68177 -0.00654038 -0.00028478 xyz
    dof rx ry rz
  end
  begin
    id 24
    name LeftFoot
    direction -0.00417578 -0.460984 0.887399
    length 3.77069
    axis 1.87232e-006 4.66002e-005 -8.1837e-006 xyz
    dof rx ry rz
  end
  begin
    id 25
    name LeftToes
    direction 0.00818058 -0.00485161 0.999955
    length 3.85048
    axis 1.06246e-005 4.65855e-005 -8.18502e-006 xyz
    dof rx ry rz
  end
:hierarchy
  begin
    root RightUpLegDummy SpineDummy LeftUpLegDummy
    RightUpLegDummy RightUpLeg
    RightUpLeg RightLeg
    RightLeg RightFoot
    RightFoot RightToes
    SpineDummy Spine
    Spine Spine1
    Spine1 HEadDummy LeftShoulder1Dummy RightShoulderDummy
    HEadDummy HEad
    LeftShoulder1Dummy LeftShoulder1
    LeftShoulder1 LeftArm
    LeftArm LeftForeArm
    LeftForeArm LeftHand
    RightShoulderDummy RightShoulder
    RightShoulder RightArm
    RightArm RightForeArm
    RightForeArm RightHand
    LeftUpLegDummy LeftUpLeg
    LeftUpLeg LeftLeg
    LeftLeg LeftFoot
    LeftFoot LeftToes
  end

:SAMPLES-PER-SECOND 30
:FRAME-RANGE 1-2775
:FULLY-SPECIFIED
:DEGREES
87
root  36.6097 39.3667 -21.6852 -177.271 -83.4423 -152.061
RightUpLeg  -44.23 7.53847 -1.20686
RightLeg  10.4112 -1.82864 -1.3083
RightFoot  3.8688 -0.326279 2.64088
RightToes  1.218e-010 1.26228e-014 -6.01869e-014
Spine  15.6036 -0.617826 -2.03564
Spine1  9.618 0.0925504 -0.345677
HEad  49.8184 3.62644 -4.47692
LeftShoulder1  2.2488 -5.98407 -17.8535
LeftArm  -9.80957 -3.08051 -54.8159
LeftForeArm  31.7639 -0.635605 -9.67904
LeftHand  -0.079636 3.91605 4.92612
RightShoulder  2.03732 3.05606 26.0211
RightArm  -17.9008 10.4066 56.3453
RightForeArm  57.2085 6.52569 8.2354
RightHand  -0.115613 -4.79677 -20.8439
LeftUpLeg  -45.3871 1.53744 3.17549
LeftLeg  10.5903 8.11516 1.7892
LeftFoot  4.398 -0.0335022 0.0492793
LeftToes  5.08156e-010 -6.90346e-011 -6.33378e-011
88
root  36.6598 39.2709 -21.5984 -178.19 -83.2969 -149.541
RightUpLeg  -46.2034 7.91761 -1.52007
RightLeg  10.6007 -2.2624 -1.39211
RightFoot  4.0561 -0.354583 2.82716
RightToes  1.218e-010 1.26228e-014 -6.01869e-014
Spine  17.1933 -0.443708 -1.73786
Spine1  9.72626 0.396037 -0.402994
HEad  50.4604 4.18029 -4.73126
LeftShoulder1  2.24291 -6.10046 -17.4606
LeftArm  -9.96595 -3.70034 -55.2875
LeftForeArm  31.9101 -3.49305 -9.65452
LeftHand  -0.0932521 3.63699 5.14397
RightShoulder  2.08852 3.28093 25.6958
RightArm  -17.5718 10.5919 56.7589
RightForeArm  57.6159 6.93501 8.30812
RightHand  -0.0862118 -4.95911 -20.7225
LeftUpLeg  -47.5956 1.84076 3.34872
LeftLeg  11.3338 8.04356 1.68269
LeftFoot  4.3465 -0.0641115 0.273946
LeftToes  5.08156e-010 -6.90346e-011 -6.33378e-011
89
root  36.682 39.1843 -21.5156 -177.69 -83.097 -148.662
RightUpLeg  -48.0058 8.39889 -2.05543
RightLeg  10.9699 -2.73259 -1.51772
RightFoot  4.13108 -0.359593 2.85395
RightToes  1.218e-010 1.26228e-014 -6.01869e-014
Spine  18.8003 -0.262897 -1.69436
Spine1  9.58655 0.661793 -0.444956
HEad  50.8268 5.18268 -4.58911
LeftShoulder1  2.23106 -6.19083 -17.0786
LeftArm  -9.71348 -4.4571 -55.745
LeftForeArm  31.1621 -6.13696 -9.5951
LeftHand  -0.110258 3.41044 5.6384
RightShoulder  2.11421 3.36818 25.6669
RightArm  -17.4565 11.2647 57.0627
RightForeArm  58.1742 6.69435 8.30455
RightHand  -0.0921973 -4.92279 -20.5764
LeftUpLeg  -49.4779 1.90533 3.43352
LeftLeg  12.0356 8.2287 1.80702
LeftFoot  4.28564 -0.103713 0.566363
LeftToes  5.08156e-010 -6.90346e-011 -6.33378e-011
90
root  36.675 39.0991 -21.451 -177.692 -82.8385 -147.377
RightUpLeg  -49.6199 8.75793 -2.39626
RightLeg  11.2929 -2.98616 -1.55457
RightFoot  4.13412 -0.378856 2.99521
RightToes  1.218e-010 1.26228e-014 -6.01869e-014
Spine  19.8515 -0.112595 -1.56587
Spine1  9.63903 0.940398 -0.603327
HEad  50.9269 6.39177 -4.16873
LeftShoulder1  2.23012 -6.3148 -16.7386
LeftArm  -8.59415 -5.33038 -56.1799
LeftForeArm  29.2061 -8.70816 -9.26697
LeftHand  -0.12107 3.16706 5.64602
RightShoulder  2.15933 3.51681 25.6403
RightArm  -17.5647 11.9287 57.5128
RightForeArm  58.5314 6.42872 8.20989
RightHand  -0.0868861 -4.95109 -20.4709
LeftUpLeg  -51.2476 2.18357 3.51988
LeftLeg  12.8471 8.24057 1.85338
LeftFoot  4.05368 -0.121156 0.714526
LeftToes  5.08156e-010 -6.90346e-011 -6.33378e-011
91
root  36.6489 39.0272 -21.3886 -176.885 -82.4928 -147.196
RightUpLeg  -50.9312 9.17091 -2.82155
RightLeg  11.6709 -3.23437 -1.58712
RightFoot  4.06487 -0.400137 3.16253
RightToes  1.218e-010 1.26228e-014 -6.01869e-014
Spine  20.6754 -0.000399972 -1.59146
Spine1  9.64855 1.17958 -0.771959
HEad  51.0903 7.41685 -3.64969
LeftShoulder1  2.23379 -6.43273 -16.4739
LeftArm  -7.22353 -6.27356 -56.5833
LeftForeArm  26.5552 -10.8565 -8.77592
LeftHand  -0.133089 2.98104 5.83826
RightShoulder  2.21249 3.74832 25.3464
RightArm  -17.953 12.4314 58.3657
RightForeArm  59.0998 6.18072 7.97729
RightHand  -0.0721382 -5.03791 -20.6968
LeftUpLeg  -52.6366 2.33151 3.57492
LeftLeg  13.6454 8.42267 2.04542
LeftFoot  3.784 -0.113539 0.682422
LeftToes  5.08156e-010 -6.90346e-011 -6.33378e-011
92
root  36.5944 38.995 -21.3455 -176.507 -82.4111 -147.059
RightUpLeg  -51.6139 9.51418 -3.273
RightLeg  11.9764 -3.65128 -1.68016
RightFoot  3.90362 -0.403805 3.21548
RightToes  1.218e-010 1.26228e-014 -6.01869e-014
Spine  21.376 0.0231695 -1.71395
Spine1  9.59793 1.25145 -0.81707
HEad  50.991 8.23147 -3.49814
LeftShoulder1  2.22339 -6.55667 -16.0444
LeftArm  -6.78115 -7.39553 -57.1257
LeftForeArm  24.7169 -11.808 -8.45091
LeftHand  -0.153135 2.76148 6.29524
RightShoulder  2.24599 3.85925 25.3297
RightArm  -17.4167 13.3874 58.5493
RightForeArm  58.7406 5.70725 8.08468
RightHand  -0.0969705 -4.89762 -20.6719
LeftUpLeg  -53.3413 2.30551 3.54604
LeftLeg  14.1719 8.50634 2.19202
LeftFoot  3.54447 -0.134843 0.867783
LeftToes  5.08156e-010 -6.90346e-011 -6.33378e-011
